# Blender v2.90.0 OBJ File: 'rocket.blend'
# www.blender.org
mtllib texturecheck.mtl
o Rocket_-_Body_Top-1
v -74.982910 97.670288 -28.969177
v -85.765503 95.821411 -28.969177
v -85.513519 94.853699 -28.969177
v -95.668640 91.265625 -28.969177
v -96.080566 92.176880 -28.969177
v -105.071320 86.013000 -28.969177
v -105.631287 86.841492 -28.969177
v -113.451050 79.246826 -28.969177
v -114.142975 79.968811 -28.969177
v -120.566742 71.161865 -28.969177
v -121.370728 71.756470 -28.969177
v -126.213715 61.990540 -28.969177
v -127.106644 62.440796 -28.969177
v -130.229507 51.996887 -28.969177
v -131.185684 52.289673 -28.969177
v -132.498611 41.468262 -28.969177
v -133.490509 41.595276 -28.969177
v -132.955704 30.707642 -28.969177
v -133.954803 30.665161 -28.969177
v -131.587677 20.024475 -28.969177
v -132.565231 19.813843 -28.969177
v -128.433884 9.726257 -28.969177
v -129.361771 9.353394 -28.969177
v -123.585022 0.109131 -28.969177
v -124.436554 -0.415161 -28.969177
v -117.180603 -8.550232 -28.969177
v -117.931305 -9.210876 -28.969177
v -109.404907 -16.002625 -28.969177
v -110.033112 -16.780701 -28.969177
v -100.481567 -22.033752 -28.969177
v -100.969238 -22.906799 -28.969177
v -90.667297 -26.470093 -28.969177
v -91.000427 -27.412964 -28.969177
v -80.244476 -29.183960 -28.969177
v -80.413483 -30.169617 -28.969177
v -69.512939 -30.097351 -28.969177
v -69.512939 -31.097351 -28.969177
v -58.781372 -29.183960 -28.969177
v -58.612366 -30.169617 -28.969177
v -48.358551 -26.470093 -28.969177
v -48.025421 -27.412964 -28.969177
v -38.544281 -22.033752 -28.969177
v -38.056610 -22.906799 -28.969177
v -29.620941 -16.002625 -28.969177
v -28.992737 -16.780701 -28.969177
v -21.845245 -8.550232 -28.969177
v -21.094574 -9.210876 -28.969177
v -15.440826 0.109131 -28.969177
v -14.589294 -0.415161 -28.969177
v -10.591980 9.726257 -28.969177
v -9.664093 9.353394 -28.969177
v -7.438171 20.024475 -28.969177
v -6.460602 19.813843 -28.969177
v -6.070129 30.707642 -28.969177
v -74.898102 96.673889 -28.969177
v -69.512939 96.902649 -28.969177
v -64.042938 97.670288 -28.969177
v -64.127747 96.673889 -28.969177
v -53.260345 95.821411 -28.969177
v -53.512329 94.853699 -28.969177
v -42.945282 92.176880 -28.969177
v -43.357208 91.265625 -28.969177
v -33.394562 86.841492 -28.969177
v -33.954529 86.013000 -28.969177
v -24.882874 79.968811 -28.969177
v -25.574799 79.246826 -28.969177
v -17.655121 71.756470 -28.969177
v -18.459106 71.161865 -28.969177
v -11.919220 62.440796 -28.969177
v -12.812134 61.990540 -28.969177
v -7.840179 52.289673 -28.969177
v -8.796326 51.996887 -28.969177
v -5.535339 41.595276 -28.969177
v -6.527252 41.468262 -28.969177
v -5.012939 33.402649 -28.969177
v -5.071045 30.665161 -28.969177
v -5.071045 30.665161 -638.569214
v -5.012939 33.402649 -638.569214
v -5.535339 41.595276 -638.569214
v -7.840179 52.289673 -638.569214
v -11.919220 62.440796 -638.569214
v -17.655121 71.756470 -638.569214
v -24.882874 79.968811 -638.569214
v -33.394562 86.841492 -638.569214
v -42.945282 92.176880 -638.569214
v -53.260345 95.821411 -638.569214
v -64.042938 97.670288 -638.569214
v -74.982910 97.670288 -638.569214
v -85.765503 95.821411 -638.569214
v -96.080566 92.176880 -638.569214
v -105.631287 86.841492 -638.569214
v -114.142975 79.968811 -638.569214
v -121.370728 71.756470 -638.569214
v -127.106644 62.440796 -638.569214
v -131.185684 52.289673 -638.569214
v -133.490509 41.595276 -638.569214
v -133.954803 30.665161 -638.569214
v -132.565231 19.813843 -638.569214
v -129.361771 9.353394 -638.569214
v -124.436554 -0.415161 -638.569214
v -117.931305 -9.210876 -638.569214
v -110.033112 -16.780701 -638.569214
v -100.969238 -22.906799 -638.569214
v -91.000427 -27.412964 -638.569214
v -80.413483 -30.169617 -638.569214
v -69.512939 -31.097351 -638.569214
v -58.612366 -30.169617 -638.569214
v -48.025421 -27.412964 -638.569214
v -38.056610 -22.906799 -638.569214
v -28.992737 -16.780701 -638.569214
v -21.094574 -9.210876 -638.569214
v -14.589294 -0.415161 -638.569214
v -9.664093 9.353394 -638.569214
v -6.460602 19.813843 -638.569214
v -64.127747 96.673889 -638.569214
v -74.898102 96.673889 -638.569214
v -85.513519 94.853699 -638.569214
v -95.668640 91.265625 -638.569214
v -105.071320 86.013000 -638.569214
v -113.451050 79.246826 -638.569214
v -120.566742 71.161865 -638.569214
v -126.213715 61.990540 -638.569214
v -130.229507 51.996887 -638.569214
v -132.498611 41.468262 -638.569214
v -132.955704 30.707642 -638.569214
v -131.587677 20.024475 -638.569214
v -128.433884 9.726257 -638.569214
v -123.585022 0.109131 -638.569214
v -117.180603 -8.550232 -638.569214
v -109.404907 -16.002625 -638.569214
v -100.481567 -22.033752 -638.569214
v -90.667297 -26.470093 -638.569214
v -80.244476 -29.183960 -638.569214
v -69.512939 -30.097351 -638.569214
v -58.781372 -29.183960 -638.569214
v -48.358551 -26.470093 -638.569214
v -38.544281 -22.033752 -638.569214
v -29.620941 -16.002625 -638.569214
v -21.845245 -8.550232 -638.569214
v -15.440826 0.109131 -638.569214
v -10.591980 9.726257 -638.569214
v -7.438171 20.024475 -638.569214
v -6.070129 30.707642 -638.569214
v -6.527252 41.468262 -638.569214
v -8.796326 51.996887 -638.569214
v -12.812134 61.990540 -638.569214
v -18.459106 71.161865 -638.569214
v -25.574799 79.246826 -638.569214
v -33.954529 86.013000 -638.569214
v -43.357208 91.265625 -638.569214
v -53.512329 94.853699 -638.569214
v -69.512939 33.402649 -638.569214
v -69.512939 33.402649 -760.949951
vt -0.304548 0.998124
vt -0.319664 0.998752
vt -0.319606 0.997399
vt -0.334381 0.995547
vt -0.334672 0.996871
vt -0.348623 0.991276
vt -0.349139 0.992533
vt -0.361924 0.984711
vt -0.362649 0.985864
vt -0.373900 0.976039
vt -0.374814 0.977055
vt -0.384207 0.965510
vt -0.385283 0.966361
vt -0.392549 0.953427
vt -0.393756 0.954087
vt -0.398684 0.940138
vt -0.399988 0.940589
vt -0.402438 0.926025
vt -0.403801 0.926253
vt -0.403701 0.911493
vt -0.405084 0.911493
vt -0.402438 0.896962
vt -0.403801 0.896733
vt -0.398684 0.882848
vt -0.399988 0.882397
vt -0.392549 0.869559
vt -0.393756 0.868899
vt -0.384208 0.857476
vt -0.385284 0.856626
vt -0.373901 0.846947
vt -0.374814 0.845931
vt -0.361925 0.838275
vt -0.362650 0.837122
vt -0.348624 0.831710
vt -0.349140 0.830453
vt -0.334381 0.827439
vt -0.334673 0.826115
vt -0.319606 0.825586
vt -0.319665 0.824234
vt -0.304724 0.826205
vt -0.304548 0.824862
vt -0.290163 0.829278
vt -0.289758 0.827983
vt -0.276341 0.834716
vt -0.275718 0.833506
vt -0.263657 0.842362
vt -0.262835 0.841273
vt -0.252475 0.851997
vt -0.251477 0.851060
vt -0.243117 0.863344
vt -0.241971 0.862586
vt -0.235853 0.876076
vt -0.234592 0.875518
vt -0.230890 0.889827
vt -0.304723 0.996780
vt -0.297376 0.995547
vt -0.289757 0.995003
vt -0.290162 0.993708
vt -0.275718 0.989479
vt -0.276340 0.988270
vt -0.262834 0.981712
vt -0.263656 0.980623
vt -0.251476 0.971925
vt -0.252475 0.970988
vt -0.241971 0.960400
vt -0.243117 0.959641
vt -0.234592 0.947467
vt -0.235853 0.946910
vt -0.229552 0.933500
vt -0.230890 0.933159
vt -0.226995 0.918899
vt -0.228373 0.918785
vt -0.226995 0.904086
vt -0.228373 0.904201
vt -0.228676 0.893092
vt -0.229552 0.889485
vt 0.970596 0.984195
vt 0.963589 0.984188
vt 0.956901 0.058414
vt 0.935252 0.058469
vt 0.941940 0.984242
vt 0.912102 0.984492
vt 0.905414 0.058718
vt 0.881940 0.984937
vt 0.875251 0.059164
vt 0.852321 0.985566
vt 0.845633 0.059793
vt 0.824098 0.986359
vt 0.817410 0.060586
vt 0.798083 0.987295
vt 0.791394 0.061522
vt 0.775023 0.988346
vt 0.768336 0.062572
vt 0.768490 0.063409
vt 0.769924 0.988942
vt 0.746448 0.988205
vt 0.745013 0.062672
vt 0.720107 0.987638
vt 0.718672 0.062105
vt 0.691658 0.987257
vt 0.690223 0.061724
vt 0.661919 0.987072
vt 0.660485 0.061539
vt 0.631747 0.987090
vt 0.630313 0.061557
vt 0.602009 0.987309
vt 0.600575 0.061776
vt 0.573562 0.987724
vt 0.572128 0.062191
vt 0.547222 0.988322
vt 0.545787 0.062789
vt 0.523748 0.989086
vt 0.522314 0.063553
vt 0.519237 0.062418
vt 0.519237 0.988730
vt 0.497454 0.988051
vt 0.497454 0.061739
vt 0.472456 0.987501
vt 0.472456 0.061190
vt 0.444963 0.987096
vt 0.444963 0.060785
vt 0.415765 0.986849
vt 0.415765 0.060538
vt 0.385701 0.986766
vt 0.385701 0.060455
vt 0.355638 0.986849
vt 0.355638 0.060538
vt 0.326440 0.987096
vt 0.326440 0.060785
vt 0.298946 0.987501
vt 0.298946 0.061189
vt 0.273948 0.988051
vt 0.273948 0.061739
vt 0.274354 0.063672
vt 0.274354 0.990076
vt 0.252358 0.989424
vt 0.252358 0.063020
vt 0.227189 0.988899
vt 0.227189 0.062495
vt 0.199569 0.988515
vt 0.199569 0.062111
vt 0.170295 0.988284
vt 0.170295 0.061880
vt 0.140206 0.988213
vt 0.140206 0.061809
vt 0.110171 0.988304
vt 0.110171 0.061900
vt 0.081053 0.988553
vt 0.081052 0.062149
vt 0.053688 0.988955
vt 0.053688 0.062551
vt 0.028864 0.989497
vt 0.028864 0.063092
vt 0.007296 0.990163
vt 0.007296 0.063759
vt 1.014433 0.058937
vt 1.021121 0.984710
vt 0.997246 0.984353
vt 0.990557 0.058579
vt 0.963908 0.058422
vt -0.295240 0.823646
vt -0.308318 0.823247
vt -0.308318 -0.000845
vt -0.315263 0.823095
vt -0.322413 -0.001115
vt -0.322413 0.822977
vt -0.337119 -0.001248
vt -0.337119 0.822844
vt -0.352014 -0.001239
vt -0.352014 0.822853
vt -0.366669 -0.001090
vt -0.366669 0.823002
vt -0.380662 -0.000804
vt -0.380662 0.823289
vt -0.393591 -0.000389
vt -0.393591 0.823703
vt -0.405084 0.000141
vt -0.405084 0.824234
vt -0.162020 0.822294
vt -0.162020 -0.001248
vt -0.151049 0.822963
vt -0.151049 -0.000579
vt -0.138534 0.823500
vt -0.138533 -0.000042
vt -0.124833 0.823889
vt -0.124833 0.000346
vt -0.110341 0.824118
vt -0.110341 0.000575
vt -0.095476 0.824180
vt -0.095476 0.000638
vt -0.080664 0.824076
vt -0.080664 0.000533
vt -0.066332 0.823806
vt -0.066332 0.000264
vt -0.052892 0.823379
vt -0.052892 -0.000163
vt -0.040731 0.822808
vt -0.040731 -0.000735
vt -0.405084 0.000845
vt -0.405084 0.824163
vt -0.415838 0.000121
vt -0.415838 0.823439
vt -0.428179 -0.000465
vt -0.428179 0.822853
vt -0.441753 -0.000896
vt -0.441753 0.822422
vt -0.456167 -0.001159
vt -0.456168 0.822158
vt -0.471009 -0.001248
vt -0.471009 0.822070
vt -0.485851 -0.001159
vt -0.485852 0.822158
vt -0.500266 -0.000896
vt -0.500267 0.822422
vt -0.513840 -0.000465
vt -0.513840 0.822853
vt -0.526181 0.000121
vt -0.526181 0.823439
vt -0.536935 0.000845
vt -0.536935 0.824163
vt -0.162020 0.000143
vt -0.162020 0.824153
vt -0.173609 -0.000397
vt -0.173609 0.823613
vt -0.186613 -0.000816
vt -0.186613 0.823193
vt -0.200658 -0.001103
vt -0.200658 0.822907
vt -0.215340 -0.001248
vt -0.215340 0.822762
vt -0.230235 -0.001248
vt -0.230235 0.822762
vt -0.244917 -0.001103
vt -0.244917 0.822907
vt -0.258961 -0.000816
vt -0.258961 0.823193
vt -0.271966 -0.000397
vt -0.271966 0.823613
vt -0.283555 0.000143
vt -0.283555 0.824153
vt -0.295240 -0.000446
vt -0.059147 0.874722
vt -0.054185 0.888473
vt -0.139173 0.910140
vt -0.086952 0.841009
vt -0.075770 0.850644
vt -0.066412 0.861990
vt -0.128019 0.824852
vt -0.113457 0.827925
vt -0.099636 0.833362
vt -0.171919 0.830357
vt -0.157676 0.826086
vt -0.142901 0.824234
vt -0.207502 0.856124
vt -0.197195 0.845595
vt -0.185219 0.836923
vt -0.225732 0.895610
vt -0.221979 0.881496
vt -0.215843 0.868207
vt -0.221978 0.938786
vt -0.225731 0.924672
vt -0.226995 0.910141
vt -0.197194 0.974686
vt -0.207501 0.964158
vt -0.215842 0.952075
vt -0.157674 0.994194
vt -0.171917 0.989924
vt -0.185217 0.983358
vt -0.113455 0.992355
vt -0.128017 0.995427
vt -0.142899 0.996046
vt -0.075768 0.969635
vt -0.086950 0.979270
vt -0.099634 0.986917
vt -0.054184 0.931805
vt -0.059146 0.945556
vt -0.066411 0.958288
vt -0.051667 0.902847
vt -0.051667 0.917431
vt 0.142031 1.179812
vt 0.902179 1.177153
vt 0.647132 1.179905
vt 0.385701 1.178515
vn 0.0000 0.0000 1.0000
vn 0.9998 -0.0212 0.0000
vn 0.9980 0.0636 0.0000
vn 0.9776 0.2107 0.0000
vn 0.9279 0.3729 0.0000
vn 0.8515 0.5243 0.0000
vn 0.7507 0.6607 0.0000
vn 0.6282 0.7780 0.0000
vn 0.4877 0.8730 0.0000
vn 0.3331 0.9429 0.0000
vn 0.1690 0.9856 0.0000
vn 0.0000 1.0000 0.0000
vn -0.1690 0.9856 0.0000
vn -0.3331 0.9429 0.0000
vn -0.4877 0.8730 0.0000
vn -0.6282 0.7780 0.0000
vn -0.7507 0.6607 0.0000
vn -0.8515 0.5243 0.0000
vn -0.9279 0.3729 0.0000
vn -0.9776 0.2107 0.0000
vn -0.9991 0.0424 0.0000
vn -0.9919 -0.1270 0.0000
vn -0.9562 -0.2928 0.0000
vn -0.8929 -0.4502 0.0000
vn -0.8040 -0.5946 0.0000
vn -0.6919 -0.7220 0.0000
vn -0.5600 -0.8285 0.0000
vn -0.4119 -0.9112 0.0000
vn -0.2520 -0.9677 0.0000
vn -0.0848 -0.9964 0.0000
vn 0.0848 -0.9964 0.0000
vn 0.2520 -0.9677 0.0000
vn 0.4119 -0.9112 0.0000
vn 0.5600 -0.8285 0.0000
vn 0.6919 -0.7220 0.0000
vn 0.8040 -0.5946 0.0000
vn 0.8929 -0.4502 0.0000
vn 0.9562 -0.2928 0.0000
vn 0.9919 -0.1270 0.0000
vn -0.1690 -0.9856 0.0000
vn -0.0424 -0.9991 0.0000
vn 0.0000 -1.0000 0.0004
vn 0.0424 -0.9991 0.0000
vn 0.1690 -0.9856 0.0000
vn 0.3331 -0.9429 0.0000
vn 0.4877 -0.8730 0.0000
vn 0.6282 -0.7780 0.0000
vn 0.7507 -0.6607 0.0000
vn 0.8515 -0.5243 0.0000
vn 0.9279 -0.3729 0.0000
vn 0.9776 -0.2107 0.0000
vn 0.9991 -0.0424 0.0000
vn 0.9919 0.1270 0.0000
vn 0.9562 0.2928 0.0000
vn 0.8929 0.4502 0.0000
vn 0.8040 0.5946 0.0000
vn 0.6919 0.7220 0.0000
vn 0.5600 0.8285 0.0000
vn 0.4119 0.9112 0.0000
vn 0.2520 0.9677 0.0000
vn 0.0848 0.9964 0.0000
vn -0.0848 0.9964 0.0000
vn -0.2520 0.9677 0.0000
vn -0.4119 0.9112 0.0000
vn -0.5600 0.8285 0.0000
vn -0.6919 0.7220 0.0000
vn -0.8040 0.5946 0.0000
vn -0.8929 0.4502 0.0000
vn -0.9562 0.2928 0.0000
vn -0.9919 0.1270 0.0000
vn -0.9991 -0.0424 0.0000
vn -0.9776 -0.2107 0.0000
vn -0.9279 -0.3729 0.0000
vn -0.8515 -0.5243 0.0000
vn -0.7507 -0.6607 0.0000
vn -0.6282 -0.7780 0.0000
vn -0.4877 -0.8730 0.0000
vn -0.3331 -0.9429 0.0000
vn 0.2231 -0.8568 -0.4649
vn 0.3647 -0.8068 -0.4649
vn 0.4958 -0.7335 -0.4649
vn 0.6126 -0.6392 -0.4649
vn 0.7118 -0.5265 -0.4649
vn 0.7905 -0.3986 -0.4649
vn 0.8465 -0.2592 -0.4649
vn 0.8782 -0.1125 -0.4649
vn 0.8845 -0.0188 -0.4662
vn 0.8655 0.1865 -0.4649
vn 0.8215 0.3301 -0.4649
vn 0.7539 0.4642 -0.4649
vn 0.6646 0.5849 -0.4649
vn 0.5562 0.6888 -0.4649
vn 0.4318 0.7729 -0.4649
vn 0.2949 0.8348 -0.4649
vn 0.1496 0.8726 -0.4649
vn 0.0000 0.8853 -0.4649
vn -0.1496 0.8726 -0.4649
vn -0.2949 0.8348 -0.4649
vn -0.4318 0.7729 -0.4649
vn -0.5562 0.6888 -0.4649
vn -0.6646 0.5849 -0.4649
vn -0.7539 0.4642 -0.4649
vn -0.8215 0.3301 -0.4649
vn -0.8655 0.1865 -0.4649
vn -0.8845 0.0376 -0.4649
vn -0.8782 -0.1125 -0.4649
vn -0.8465 -0.2592 -0.4649
vn -0.7905 -0.3986 -0.4649
vn -0.7118 -0.5265 -0.4649
vn -0.6126 -0.6392 -0.4649
vn -0.4958 -0.7335 -0.4649
vn -0.3647 -0.8068 -0.4649
vn -0.2231 -0.8568 -0.4649
vn -0.0751 -0.8822 -0.4649
vn 0.0751 -0.8822 -0.4649
vn 0.8832 0.0563 -0.4655
g Rocket_-_Body_Top-1_Rocket_-_Body_Top-1_Material.001
usemtl Material.001
s off
f 1/1/1 2/2/1 3/3/1
f 3/3/1 2/2/1 4/4/1
f 4/4/1 2/2/1 5/5/1
f 4/4/1 5/5/1 6/6/1
f 6/6/1 5/5/1 7/7/1
f 6/6/1 7/7/1 8/8/1
f 8/8/1 7/7/1 9/9/1
f 8/8/1 9/9/1 10/10/1
f 10/10/1 9/9/1 11/11/1
f 10/10/1 11/11/1 12/12/1
f 12/12/1 11/11/1 13/13/1
f 12/12/1 13/13/1 14/14/1
f 14/14/1 13/13/1 15/15/1
f 14/14/1 15/15/1 16/16/1
f 16/16/1 15/15/1 17/17/1
f 16/16/1 17/17/1 18/18/1
f 18/18/1 17/17/1 19/19/1
f 18/18/1 19/19/1 20/20/1
f 20/20/1 19/19/1 21/21/1
f 20/20/1 21/21/1 22/22/1
f 22/22/1 21/21/1 23/23/1
f 22/22/1 23/23/1 24/24/1
f 24/24/1 23/23/1 25/25/1
f 24/24/1 25/25/1 26/26/1
f 26/26/1 25/25/1 27/27/1
f 26/26/1 27/27/1 28/28/1
f 28/28/1 27/27/1 29/29/1
f 28/28/1 29/29/1 30/30/1
f 30/30/1 29/29/1 31/31/1
f 30/30/1 31/31/1 32/32/1
f 32/32/1 31/31/1 33/33/1
f 32/32/1 33/33/1 34/34/1
f 34/34/1 33/33/1 35/35/1
f 34/34/1 35/35/1 36/36/1
f 36/36/1 35/35/1 37/37/1
f 36/36/1 37/37/1 38/38/1
f 38/38/1 37/37/1 39/39/1
f 38/38/1 39/39/1 40/40/1
f 40/40/1 39/39/1 41/41/1
f 40/40/1 41/41/1 42/42/1
f 42/42/1 41/41/1 43/43/1
f 42/42/1 43/43/1 44/44/1
f 44/44/1 43/43/1 45/45/1
f 44/44/1 45/45/1 46/46/1
f 46/46/1 45/45/1 47/47/1
f 46/46/1 47/47/1 48/48/1
f 48/48/1 47/47/1 49/49/1
f 48/48/1 49/49/1 50/50/1
f 50/50/1 49/49/1 51/51/1
f 50/50/1 51/51/1 52/52/1
f 52/52/1 51/51/1 53/53/1
f 52/52/1 53/53/1 54/54/1
f 3/3/1 55/55/1 1/1/1
f 1/1/1 55/55/1 56/56/1
f 1/1/1 56/56/1 57/57/1
f 57/57/1 56/56/1 58/58/1
f 57/57/1 58/58/1 59/59/1
f 59/59/1 58/58/1 60/60/1
f 59/59/1 60/60/1 61/61/1
f 61/61/1 60/60/1 62/62/1
f 61/61/1 62/62/1 63/63/1
f 63/63/1 62/62/1 64/64/1
f 63/63/1 64/64/1 65/65/1
f 65/65/1 64/64/1 66/66/1
f 65/65/1 66/66/1 67/67/1
f 67/67/1 66/66/1 68/68/1
f 67/67/1 68/68/1 69/69/1
f 69/69/1 68/68/1 70/70/1
f 69/69/1 70/70/1 71/71/1
f 71/71/1 70/70/1 72/72/1
f 71/71/1 72/72/1 73/73/1
f 73/73/1 72/72/1 74/74/1
f 73/73/1 74/74/1 75/75/1
f 75/75/1 74/74/1 54/54/1
f 75/75/1 54/54/1 76/76/1
f 76/76/1 54/54/1 53/53/1
f 77/77/2 78/78/2 75/79/2
f 75/79/3 78/78/3 73/80/3
f 78/78/3 79/81/3 73/80/3
f 73/80/4 79/81/4 80/82/4
f 73/80/4 80/82/4 71/83/4
f 71/83/5 80/82/5 81/84/5
f 71/83/5 81/84/5 69/85/5
f 69/85/6 81/84/6 82/86/6
f 69/85/6 82/86/6 67/87/6
f 67/87/7 82/86/7 83/88/7
f 67/87/7 83/88/7 65/89/7
f 65/89/8 83/88/8 84/90/8
f 65/89/8 84/90/8 63/91/8
f 63/91/9 84/90/9 85/92/9
f 63/91/9 85/92/9 61/93/9
f 61/94/10 85/95/10 86/96/10
f 61/94/10 86/96/10 59/97/10
f 59/97/11 86/96/11 87/98/11
f 59/97/11 87/98/11 57/99/11
f 57/99/12 87/98/12 88/100/12
f 57/99/12 88/100/12 1/101/12
f 1/101/13 88/100/13 89/102/13
f 1/101/13 89/102/13 2/103/13
f 2/103/14 89/102/14 90/104/14
f 2/103/14 90/104/14 5/105/14
f 5/105/15 90/104/15 91/106/15
f 5/105/15 91/106/15 7/107/15
f 7/107/16 91/106/16 92/108/16
f 7/107/16 92/108/16 9/109/16
f 9/109/17 92/108/17 93/110/17
f 9/109/17 93/110/17 11/111/17
f 11/111/18 93/110/18 94/112/18
f 11/111/18 94/112/18 13/113/18
f 13/114/19 94/115/19 95/116/19
f 13/114/19 95/116/19 15/117/19
f 15/117/20 95/116/20 96/118/20
f 15/117/20 96/118/20 17/119/20
f 17/119/21 96/118/21 97/120/21
f 17/119/21 97/120/21 19/121/21
f 19/121/22 97/120/22 98/122/22
f 19/121/22 98/122/22 21/123/22
f 21/123/23 98/122/23 99/124/23
f 21/123/23 99/124/23 23/125/23
f 23/125/24 99/124/24 100/126/24
f 23/125/24 100/126/24 25/127/24
f 25/127/25 100/126/25 101/128/25
f 25/127/25 101/128/25 27/129/25
f 27/129/26 101/128/26 102/130/26
f 27/129/26 102/130/26 29/131/26
f 29/131/27 102/130/27 103/132/27
f 29/131/27 103/132/27 31/133/27
f 31/134/28 103/135/28 104/136/28
f 31/134/28 104/136/28 33/137/28
f 33/137/29 104/136/29 105/138/29
f 33/137/29 105/138/29 35/139/29
f 35/139/30 105/138/30 106/140/30
f 35/139/30 106/140/30 37/141/30
f 37/141/31 106/140/31 107/142/31
f 37/141/31 107/142/31 39/143/31
f 39/143/32 107/142/32 108/144/32
f 39/143/32 108/144/32 41/145/32
f 41/145/33 108/144/33 109/146/33
f 41/145/33 109/146/33 43/147/33
f 43/147/34 109/146/34 110/148/34
f 43/147/34 110/148/34 45/149/34
f 45/149/35 110/148/35 111/150/35
f 45/149/35 111/150/35 47/151/35
f 47/151/36 111/150/36 112/152/36
f 47/151/36 112/152/36 49/153/36
f 49/153/37 112/152/37 113/154/37
f 49/153/37 113/154/37 51/155/37
f 51/156/38 113/157/38 114/158/38
f 51/156/38 114/158/38 53/159/38
f 53/159/39 114/158/39 77/77/39
f 53/159/39 77/77/39 76/160/39
f 76/160/2 77/77/2 75/79/2
f 60/161/40 58/162/40 115/163/40
f 115/163/41 58/162/41 56/164/41
f 115/163/42 56/164/42 116/165/42
f 116/165/43 56/164/43 55/166/43
f 116/165/44 55/166/44 117/167/44
f 117/167/44 55/166/44 3/168/44
f 117/167/45 3/168/45 118/169/45
f 118/169/45 3/168/45 4/170/45
f 118/169/46 4/170/46 119/171/46
f 119/171/46 4/170/46 6/172/46
f 119/171/47 6/172/47 120/173/47
f 120/173/47 6/172/47 8/174/47
f 120/173/48 8/174/48 121/175/48
f 121/175/48 8/174/48 10/176/48
f 121/175/49 10/176/49 122/177/49
f 122/177/49 10/176/49 12/178/49
f 122/179/50 12/180/50 123/181/50
f 123/181/50 12/180/50 14/182/50
f 123/181/51 14/182/51 124/183/51
f 124/183/51 14/182/51 16/184/51
f 124/183/52 16/184/52 125/185/52
f 125/185/52 16/184/52 18/186/52
f 125/185/53 18/186/53 126/187/53
f 126/187/53 18/186/53 20/188/53
f 126/187/54 20/188/54 127/189/54
f 127/189/54 20/188/54 22/190/54
f 127/189/55 22/190/55 128/191/55
f 128/191/55 22/190/55 24/192/55
f 128/191/56 24/192/56 129/193/56
f 129/193/56 24/192/56 26/194/56
f 129/193/57 26/194/57 130/195/57
f 130/195/57 26/194/57 28/196/57
f 130/195/58 28/196/58 131/197/58
f 131/197/58 28/196/58 30/198/58
f 131/199/59 30/200/59 132/201/59
f 132/201/59 30/200/59 32/202/59
f 132/201/60 32/202/60 133/203/60
f 133/203/60 32/202/60 34/204/60
f 133/203/61 34/204/61 134/205/61
f 134/205/61 34/204/61 36/206/61
f 134/205/62 36/206/62 135/207/62
f 135/207/62 36/206/62 38/208/62
f 135/207/63 38/208/63 136/209/63
f 136/209/63 38/208/63 40/210/63
f 136/209/64 40/210/64 137/211/64
f 137/211/64 40/210/64 42/212/64
f 137/211/65 42/212/65 138/213/65
f 138/213/65 42/212/65 44/214/65
f 138/213/66 44/214/66 139/215/66
f 139/215/66 44/214/66 46/216/66
f 139/215/67 46/216/67 140/217/67
f 140/217/67 46/216/67 48/218/67
f 140/217/68 48/218/68 141/219/68
f 141/219/68 48/218/68 50/220/68
f 141/221/69 50/222/69 142/223/69
f 142/223/69 50/222/69 52/224/69
f 142/223/70 52/224/70 143/225/70
f 143/225/70 52/224/70 54/226/70
f 143/225/71 54/226/71 144/227/71
f 144/227/71 54/226/71 74/228/71
f 144/227/72 74/228/72 145/229/72
f 145/229/72 74/228/72 72/230/72
f 145/229/73 72/230/73 146/231/73
f 146/231/73 72/230/73 70/232/73
f 146/231/74 70/232/74 147/233/74
f 147/233/74 70/232/74 68/234/74
f 147/233/75 68/234/75 148/235/75
f 148/235/75 68/234/75 66/236/75
f 148/235/76 66/236/76 149/237/76
f 149/237/76 66/236/76 64/238/76
f 149/237/77 64/238/77 150/239/77
f 150/239/77 64/238/77 62/240/77
f 150/239/78 62/240/78 151/241/78
f 151/241/78 62/240/78 60/161/78
f 151/241/40 60/161/40 115/163/40
f 134/242/1 135/243/1 152/244/1
f 131/245/1 132/246/1 152/244/1
f 152/244/1 132/246/1 133/247/1
f 152/244/1 133/247/1 134/242/1
f 128/248/1 129/249/1 152/244/1
f 152/244/1 129/249/1 130/250/1
f 152/244/1 130/250/1 131/245/1
f 125/251/1 126/252/1 152/244/1
f 152/244/1 126/252/1 127/253/1
f 152/244/1 127/253/1 128/248/1
f 122/254/1 123/255/1 152/244/1
f 152/244/1 123/255/1 124/256/1
f 152/244/1 124/256/1 125/251/1
f 119/257/1 120/258/1 152/244/1
f 152/244/1 120/258/1 121/259/1
f 152/244/1 121/259/1 122/254/1
f 116/260/1 117/261/1 152/244/1
f 152/244/1 117/261/1 118/262/1
f 152/244/1 118/262/1 119/257/1
f 150/263/1 151/264/1 152/244/1
f 152/244/1 151/264/1 115/265/1
f 152/244/1 115/265/1 116/260/1
f 147/266/1 148/267/1 152/244/1
f 152/244/1 148/267/1 149/268/1
f 152/244/1 149/268/1 150/263/1
f 144/269/1 145/270/1 152/244/1
f 152/244/1 145/270/1 146/271/1
f 152/244/1 146/271/1 147/266/1
f 141/272/1 142/273/1 152/244/1
f 152/244/1 142/273/1 143/274/1
f 152/244/1 143/274/1 144/269/1
f 138/275/1 139/276/1 152/244/1
f 152/244/1 139/276/1 140/277/1
f 152/244/1 140/277/1 141/272/1
f 135/243/1 136/278/1 152/244/1
f 152/244/1 136/278/1 137/279/1
f 152/244/1 137/279/1 138/275/1
f 108/144/79 107/142/79 153/280/79
f 108/144/80 153/280/80 109/146/80
f 110/148/81 109/146/81 153/280/81
f 111/150/82 110/148/82 153/280/82
f 112/152/83 111/150/83 153/280/83
f 113/154/84 112/152/84 153/280/84
f 114/158/85 113/157/85 153/281/85
f 77/77/86 114/158/86 153/281/86
f 78/78/87 77/77/87 153/281/87
f 80/82/88 79/81/88 153/281/88
f 80/82/89 153/281/89 81/84/89
f 82/86/90 81/84/90 153/281/90
f 83/88/91 82/86/91 153/281/91
f 84/90/92 83/88/92 153/281/92
f 85/92/93 84/90/93 153/281/93
f 86/96/94 85/95/94 153/282/94
f 87/98/95 86/96/95 153/282/95
f 88/100/96 87/98/96 153/282/96
f 89/102/97 88/100/97 153/282/97
f 90/104/98 89/102/98 153/282/98
f 91/106/99 90/104/99 153/282/99
f 92/108/100 91/106/100 153/282/100
f 93/110/101 92/108/101 153/282/101
f 94/112/102 93/110/102 153/282/102
f 95/116/103 94/115/103 153/283/103
f 96/118/104 95/116/104 153/283/104
f 97/120/105 96/118/105 153/283/105
f 98/122/106 97/120/106 153/283/106
f 99/124/107 98/122/107 153/283/107
f 100/126/108 99/124/108 153/283/108
f 101/128/109 100/126/109 153/283/109
f 102/130/110 101/128/110 153/283/110
f 103/132/111 102/130/111 153/283/111
f 104/136/112 103/135/112 153/280/112
f 105/138/113 104/136/113 153/280/113
f 106/140/114 105/138/114 153/280/114
f 107/142/115 106/140/115 153/280/115
f 79/81/116 78/78/116 153/281/116
